<svg width="20" height="21" viewBox="0 0 20 21" fill="none" xmlns="http://www.w3.org/2000/svg">
<path fill-rule="evenodd" clip-rule="evenodd" d="M6.24998 12.525C5.87961 11.25 6.1759 9.825 7.06479 8.85C8.4722 7.275 10.6944 7.125 12.25 8.325L15.6574 3.525C12.1759 0.899999 7.21294 0.974999 3.73146 3.9C0.472198 6.675 -0.564839 11.4 1.06479 15.375C1.80553 17.1 2.91664 18.375 4.24998 19.35L7.65738 14.55C7.06479 14.1 6.54627 13.5 6.24998 12.525V12.525Z" fill="#F178B6"/>
<ellipse cx="9.95372" cy="11.4" rx="1.25926" ry="1.275" fill="#EF5DA8"/>
<path fill-rule="evenodd" clip-rule="evenodd" d="M16.1759 18.975C19.4352 16.2 20.4722 11.475 18.7685 7.5C18.0278 5.775 16.9167 4.5 15.5833 3.525L12.25 8.25C12.9167 8.775 13.5093 9.525 13.7315 10.575C13.9537 11.775 13.6574 13.125 12.8426 14.025C12.6944 14.25 12.4722 14.4 12.25 14.55C13.7315 16.575 14.4722 17.7 15.6574 19.35C15.8056 19.275 16.0278 19.125 16.1759 18.975V18.975Z" fill="#EF5DA8"/>
</svg>
