<svg width="133" height="16" viewBox="0 0 133 16" fill="none" xmlns="http://www.w3.org/2000/svg">
<path d="M9.32844 0.456L13.5764 8.928L12.9044 0.456H18.4484L17.2484 15H10.2164L6.18444 7.08L5.39244 15H2.24844L1.04844 0.456H9.32844ZM22.8498 15L22.2258 8.784L17.1378 0.456H23.0418L25.2018 5.424L27.3378 0.456H33.2418L28.1538 8.784L27.5298 15H22.8498ZM41.54 15L40.58 12.576H34.46L33.548 15H30.14L34.196 0.456H42.74L46.796 15H41.54ZM39.356 9.456L37.46 4.656L35.636 9.456H39.356ZM56.1401 6.576C56.6681 6.896 57.1081 7.352 57.4601 7.944C57.8281 8.536 58.0121 9.328 58.0121 10.32C58.0121 11.296 57.7001 12.184 57.0761 12.984C55.9241 14.488 54.1721 15.24 51.8201 15.24C50.7961 15.24 49.7801 15.096 48.7721 14.808C47.7801 14.504 47.0441 14.2 46.5641 13.896L45.8441 13.464L46.8761 11.4C48.0281 11.96 49.0681 12.24 49.9961 12.24C50.9241 12.24 51.3881 11.944 51.3881 11.352C51.3881 11.016 51.2041 10.704 50.8361 10.416C50.4841 10.112 50.0441 9.824 49.5161 9.552C49.0041 9.28 48.4841 8.968 47.9561 8.616C47.4441 8.248 47.0041 7.744 46.6361 7.104C46.2841 6.448 46.1081 5.688 46.1081 4.824C46.1081 3.288 46.6921 2.12 47.8601 1.32C49.0441 0.52 50.4681 0.12 52.1321 0.12C53.1241 0.12 54.0521 0.24 54.9161 0.48C55.7961 0.719999 56.4201 0.959999 56.7881 1.2L57.3641 1.56L56.4281 3.6C55.6121 3.248 54.7881 3.072 53.9561 3.072C53.1401 3.072 52.7321 3.384 52.7321 4.008C52.7321 4.344 52.9081 4.648 53.2601 4.92C53.6281 5.192 54.0681 5.456 54.5801 5.712C55.1081 5.952 55.6281 6.24 56.1401 6.576ZM64.6666 9.408C64.6666 10.384 64.8266 11.048 65.1466 11.4C65.4666 11.736 65.8666 11.904 66.3466 11.904C67.0986 11.904 67.8586 11.776 68.6266 11.52L68.9866 11.4L70.0186 13.464C69.8746 13.592 69.6586 13.76 69.3706 13.968C69.0826 14.16 68.4346 14.424 67.4266 14.76C66.4346 15.08 65.4026 15.24 64.3306 15.24C63.2746 15.24 62.3866 15.088 61.6666 14.784C60.9466 14.48 60.3946 14.128 60.0106 13.728C59.6266 13.312 59.3146 12.768 59.0746 12.096C58.8346 11.408 58.6746 10.824 58.5946 10.344C58.5306 9.864 58.4746 9.264 58.4266 8.544L57.8506 0.456H68.6506L69.3226 3.336L65.2426 3.696L65.0026 6.024H68.2186L68.6986 8.28L64.6666 9.288V9.408ZM78.0472 0.456L82.2952 8.928L81.6232 0.456H87.1672L85.9672 15H78.9352L74.9032 7.08L74.1112 15H70.9672L69.7672 0.456H78.0472ZM97.3526 6.576C97.8806 6.896 98.3206 7.352 98.6726 7.944C99.0406 8.536 99.2246 9.328 99.2246 10.32C99.2246 11.296 98.9126 12.184 98.2886 12.984C97.1366 14.488 95.3846 15.24 93.0326 15.24C92.0086 15.24 90.9926 15.096 89.9846 14.808C88.9926 14.504 88.2566 14.2 87.7766 13.896L87.0566 13.464L88.0886 11.4C89.2406 11.96 90.2806 12.24 91.2086 12.24C92.1366 12.24 92.6006 11.944 92.6006 11.352C92.6006 11.016 92.4166 10.704 92.0486 10.416C91.6966 10.112 91.2566 9.824 90.7286 9.552C90.2166 9.28 89.6966 8.968 89.1686 8.616C88.6566 8.248 88.2166 7.744 87.8486 7.104C87.4966 6.448 87.3206 5.688 87.3206 4.824C87.3206 3.288 87.9046 2.12 89.0726 1.32C90.2566 0.52 91.6806 0.12 93.3446 0.12C94.3366 0.12 95.2646 0.24 96.1286 0.48C97.0086 0.719999 97.6326 0.959999 98.0006 1.2L98.5766 1.56L97.6406 3.6C96.8246 3.248 96.0006 3.072 95.1686 3.072C94.3526 3.072 93.9446 3.384 93.9446 4.008C93.9446 4.344 94.1206 4.648 94.4726 4.92C94.8406 5.192 95.2806 5.456 95.7926 5.712C96.3206 5.952 96.8406 6.24 97.3526 6.576ZM99.0988 7.824C99.0988 5.312 99.8268 3.4 101.283 2.088C102.755 0.776 104.851 0.12 107.571 0.12C110.307 0.12 112.403 0.776 113.859 2.088C115.331 3.4 116.067 5.312 116.067 7.824C116.067 10.336 115.291 12.2 113.739 13.416C112.203 14.632 110.147 15.24 107.571 15.24C105.011 15.24 102.955 14.632 101.403 13.416C99.8668 12.2 99.0988 10.336 99.0988 7.824ZM109.683 7.728C109.683 4.496 108.979 2.88 107.571 2.88C106.179 2.88 105.483 4.496 105.483 7.728C105.483 10.96 106.179 12.576 107.571 12.576C108.979 12.576 109.683 10.96 109.683 7.728ZM123.94 7.728C124.676 7.728 125.26 7.504 125.692 7.056C126.124 6.608 126.34 6.064 126.34 5.424C126.34 4.768 126.132 4.28 125.716 3.96C125.316 3.624 124.796 3.456 124.156 3.456H123.196L122.788 7.728H123.94ZM126.652 0.456C128.364 0.456 129.732 0.864 130.756 1.68C131.796 2.48 132.316 3.672 132.316 5.256C132.316 5.832 132.196 6.384 131.956 6.912C131.716 7.424 131.428 7.84 131.092 8.16C130.388 8.8 129.74 9.256 129.148 9.528L128.788 9.672L131.38 15H127.18L122.524 10.32L122.068 15H117.388L115.948 0.456H126.652Z" fill="white"/>
</svg>
