<svg width="16" height="16" viewBox="0 0 16 16" fill="none" xmlns="http://www.w3.org/2000/svg">
<path fill-rule="evenodd" clip-rule="evenodd" d="M8.00002 0C7.26156 0 6.58464 0.123077 5.90771 0.307692L7.13848 4.92308C7.38464 4.86154 7.69233 4.8 7.93848 4.8C9.7231 4.8 11.1385 6.21538 11.1385 8C11.1385 9.47692 10.1539 10.7077 8.80002 11.0769L10.0308 15.6923C13.4769 14.8308 16 11.6923 16 8C16 3.56923 12.4308 0 8.00002 0V0Z" fill="#EF5DA8"/>
<path fill-rule="evenodd" clip-rule="evenodd" d="M8 11.2C6.21538 11.2 4.8 9.78462 4.8 8C4.8 6.52308 5.78461 5.29231 7.13846 4.92308L5.90769 0.307693C2.52308 1.16923 0 4.30769 0 8C0 12.4308 3.56923 16 8 16C8.73846 16 9.41538 15.8769 10.0923 15.6923L8.86154 11.0769C8.55385 11.1385 8.30769 11.2 8 11.2V11.2Z" fill="#F178B6"/>
</svg>
