<svg width="12" height="13" viewBox="0 0 12 13" fill="none" xmlns="http://www.w3.org/2000/svg">
<path fill-rule="evenodd" clip-rule="evenodd" d="M5.43646 4.262C5.046 4.01508 4.72662 4.19092 4.72662 4.65292L4.72662 8.44308C4.72662 8.90508 5.04231 9.07492 5.42769 8.82015L8.25877 6.95185C8.64415 6.69754 8.64046 6.28723 8.25 6.04031L5.43646 4.262V4.262ZM0.906923 6.5C0.906923 3.692 3.19154 1.40692 6 1.40692C8.80846 1.40692 11.0931 3.692 11.0931 6.5C11.0931 9.308 8.80846 11.5931 6 11.5931C3.19154 11.5931 0.906923 9.308 0.906923 6.5V6.5ZM-2.62268e-07 6.5C-1.17415e-07 9.81385 2.68615 12.5 6 12.5C9.31385 12.5 12 9.81385 12 6.5C12 3.18615 9.31385 0.5 6 0.5C2.68615 0.5 -4.07121e-07 3.18615 -2.62268e-07 6.5V6.5V6.5Z" fill="#F178B6"/>
</svg>
